<svg xmlns="http://www.w3.org/2000/svg" xmlns:xlink="http://www.w3.org/1999/xlink" width="500" zoomAndPan="magnify" viewBox="0 0 375 374.999991" height="500" preserveAspectRatio="xMidYMid meet" version="1.0"><defs><g/><clipPath id="dd0d400694"><path d="M 131.25 131.25 L 243.75 131.25 L 243.75 243.75 L 131.25 243.75 Z M 131.25 131.25 " clip-rule="nonzero"/></clipPath><clipPath id="715fc1b80c"><path d="M 187.5 131.25 C 156.433594 131.25 131.25 156.433594 131.25 187.5 C 131.25 218.566406 156.433594 243.75 187.5 243.75 C 218.566406 243.75 243.75 218.566406 243.75 187.5 C 243.75 156.433594 218.566406 131.25 187.5 131.25 " clip-rule="nonzero"/></clipPath><clipPath id="b36606ca4c"><path d="M 150.472656 146 L 224 146 L 224 209.625 L 150.472656 209.625 Z M 150.472656 146 " clip-rule="nonzero"/></clipPath><clipPath id="bfc420af39"><path d="M 150.472656 146 L 224.722656 146 L 224.722656 209.625 L 150.472656 209.625 Z M 150.472656 146 " clip-rule="nonzero"/></clipPath></defs><g clip-path="url(#dd0d400694)"><g clip-path="url(#715fc1b80c)"><path fill="#7bcafb" d="M 131.25 131.25 L 243.75 131.25 L 243.75 243.75 L 131.25 243.75 Z M 131.25 131.25 " fill-opacity="1" fill-rule="nonzero"/></g></g><g clip-path="url(#b36606ca4c)"><path fill="#ffffff" d="M 186.351562 149.566406 L 185.027344 149.191406 L 185.773438 146.535156 L 187.097656 146.910156 Z M 221.1875 196.460938 L 221.195312 195.082031 L 223.945312 195.089844 L 223.941406 196.472656 Z M 150.984375 207.832031 L 152.585938 206.875 L 153.292969 208.058594 L 151.695312 209.015625 Z M 154.472656 207.347656 L 153.765625 206.164062 L 156.125 204.746094 L 156.832031 205.929688 Z M 158.011719 205.222656 L 157.304688 204.039062 L 159.664062 202.621094 L 160.371094 203.804688 Z M 161.550781 203.09375 L 160.84375 201.910156 L 163.203125 200.492188 L 163.910156 201.675781 Z M 165.09375 200.96875 L 164.382812 199.785156 L 166.746094 198.367188 L 167.453125 199.550781 Z M 168.632812 198.839844 L 167.925781 197.65625 L 170.285156 196.238281 L 170.992188 197.421875 Z M 172.171875 196.714844 L 171.464844 195.53125 C 172.835938 194.707031 172.347656 194.902344 174.425781 194.910156 L 174.421875 196.289062 L 172.890625 196.285156 Z M 175.796875 196.292969 L 175.800781 194.914062 L 178.550781 194.925781 L 178.546875 196.304688 Z M 179.921875 196.308594 L 179.929688 194.929688 L 182.679688 194.941406 L 182.671875 196.320312 Z M 184.050781 196.324219 L 184.054688 194.945312 L 186.804688 194.953125 L 186.800781 196.335938 Z M 188.175781 196.339844 L 188.179688 194.960938 L 190.933594 194.96875 L 190.925781 196.351562 Z M 192.300781 196.355469 L 192.308594 194.976562 L 195.058594 194.984375 L 195.054688 196.363281 Z M 196.429688 196.371094 L 196.433594 194.992188 L 199.183594 195 L 199.179688 196.378906 Z M 200.554688 196.386719 L 200.5625 195.003906 L 203.3125 195.015625 L 203.308594 196.394531 Z M 204.683594 196.402344 L 204.6875 195.019531 L 207.4375 195.03125 L 207.433594 196.410156 Z M 208.808594 196.414062 L 208.8125 195.035156 L 211.566406 195.046875 L 211.558594 196.425781 Z M 212.933594 196.429688 L 212.941406 195.050781 L 215.691406 195.0625 L 215.6875 196.441406 Z M 217.0625 196.445312 L 217.066406 195.066406 L 219.820312 195.078125 L 219.8125 196.457031 Z M 174.039062 193.378906 L 172.714844 193.003906 L 173.460938 190.347656 L 174.785156 190.722656 Z M 175.15625 189.394531 L 173.832031 189.023438 L 174.582031 186.367188 L 175.90625 186.742188 Z M 176.277344 185.414062 L 174.953125 185.039062 L 175.699219 182.382812 L 177.023438 182.757812 Z M 177.398438 181.429688 L 176.074219 181.054688 L 176.820312 178.398438 L 178.144531 178.773438 Z M 178.515625 177.445312 L 177.191406 177.074219 L 177.9375 174.417969 L 179.261719 174.792969 Z M 179.636719 173.464844 L 178.3125 173.089844 L 179.058594 170.433594 L 180.382812 170.808594 Z M 180.753906 169.480469 L 179.429688 169.105469 L 180.175781 166.449219 L 181.5 166.824219 Z M 181.875 165.496094 L 180.550781 165.121094 L 181.296875 162.46875 L 182.621094 162.839844 Z M 182.992188 161.515625 L 181.671875 161.140625 L 182.417969 158.484375 L 183.742188 158.859375 Z M 184.113281 157.53125 L 182.789062 157.15625 L 183.535156 154.5 L 184.859375 154.875 Z M 185.234375 153.546875 L 183.910156 153.171875 L 184.65625 150.519531 L 185.980469 150.890625 Z M 185.234375 153.546875 " fill-opacity="1" fill-rule="evenodd"/></g><g clip-path="url(#bfc420af39)"><path fill="#ffffff" d="M 150.742188 208.085938 L 185.839844 146.382812 C 186.078125 145.960938 186.683594 145.886719 187.007812 146.335938 L 224.550781 195.464844 C 224.726562 195.804688 224.59375 196.21875 224.257812 196.394531 L 198.945312 209.457031 C 198.738281 209.601562 198.6875 209.644531 198.417969 209.644531 L 151.335938 209.113281 C 150.804688 209.105469 150.488281 208.535156 150.742188 208.085938 Z M 198.574219 205.878906 L 198.972656 207.925781 L 222.898438 195.546875 L 187.664062 149.460938 Z M 186.113281 148.675781 L 152.511719 207.75 L 197.636719 208.261719 Z M 186.113281 148.675781 " fill-opacity="1" fill-rule="evenodd"/></g><g fill="#ffffff" fill-opacity="1"><g transform="translate(151.199203, 223.87828)"><g><path d="M 7.558594 -8.375 C 7.414062 -8.425781 7.261719 -8.363281 7.199219 -8.230469 L 3.574219 -1.261719 L 1.992188 -8.160156 C 1.96875 -8.292969 1.824219 -8.386719 1.691406 -8.386719 C 1.546875 -8.386719 1.429688 -8.28125 1.402344 -8.136719 L 0.046875 -0.324219 C 0.0234375 -0.167969 0.132812 -0.0117188 0.300781 0.0234375 C 0.3125 0.0234375 0.335938 0.0234375 0.347656 0.0234375 C 0.492188 0.0234375 0.625 -0.0859375 0.648438 -0.226562 L 1.738281 -6.550781 L 3.167969 -0.324219 C 3.203125 -0.203125 3.300781 -0.109375 3.433594 -0.0976562 C 3.550781 -0.0703125 3.671875 -0.144531 3.730469 -0.253906 L 6.886719 -6.324219 L 5.964844 -0.347656 C 5.941406 -0.179688 6.058594 -0.0234375 6.214844 0 C 6.382812 0.0234375 6.539062 -0.0859375 6.5625 -0.253906 L 7.765625 -8.039062 C 7.789062 -8.183594 7.703125 -8.328125 7.558594 -8.375 Z M 7.558594 -8.375 "/></g></g></g><g fill="#ffffff" fill-opacity="1"><g transform="translate(159.107219, 223.87828)"><g><path d="M 3.886719 -4.019531 C 3.742188 -4.054688 3.589844 -3.984375 3.527344 -3.851562 C 3.503906 -3.792969 3.480469 -3.730469 3.445312 -3.671875 C 3.277344 -3.816406 3.046875 -3.960938 2.761719 -4.007812 C 2.339844 -4.078125 1.921875 -3.9375 1.511719 -3.5625 C 0.515625 -2.6875 0.0976562 -1.273438 0.324219 -0.515625 C 0.40625 -0.191406 0.625 0 0.898438 0.046875 C 0.9375 0.046875 0.984375 0.0585938 1.019531 0.0585938 C 1.824219 0.0585938 2.640625 -1.007812 3.238281 -2.003906 L 2.976562 -0.289062 C 2.953125 -0.132812 3.070312 0.0234375 3.226562 0.046875 C 3.394531 0.0703125 3.539062 -0.0351562 3.5625 -0.203125 L 4.09375 -3.683594 C 4.117188 -3.828125 4.03125 -3.972656 3.886719 -4.019531 Z M 0.984375 -0.539062 C 0.9375 -0.550781 0.898438 -0.636719 0.886719 -0.683594 C 0.730469 -1.1875 1.042969 -2.363281 1.90625 -3.121094 C 2.136719 -3.335938 2.363281 -3.433594 2.566406 -3.433594 C 2.59375 -3.433594 2.628906 -3.433594 2.664062 -3.433594 C 2.878906 -3.394531 3.058594 -3.226562 3.179688 -3.109375 C 2.230469 -1.261719 1.355469 -0.492188 0.984375 -0.539062 Z M 0.984375 -0.539062 "/></g></g></g><g fill="#ffffff" fill-opacity="1"><g transform="translate(163.511225, 223.87828)"><g><path d="M 3.445312 -4.164062 L 2.472656 -4.164062 L 3.15625 -8.027344 C 3.179688 -8.183594 3.070312 -8.339844 2.914062 -8.375 C 2.746094 -8.398438 2.59375 -8.292969 2.566406 -8.136719 L 1.859375 -4.164062 L 0.742188 -4.164062 C 0.574219 -4.164062 0.445312 -4.03125 0.445312 -3.863281 C 0.445312 -3.695312 0.574219 -3.5625 0.742188 -3.5625 L 1.765625 -3.5625 L 1.210938 -0.445312 C 1.175781 -0.277344 1.285156 -0.132812 1.453125 -0.0976562 C 1.464844 -0.0976562 1.476562 -0.0976562 1.5 -0.0976562 C 1.644531 -0.0976562 1.765625 -0.191406 1.789062 -0.335938 L 2.363281 -3.5625 L 3.445312 -3.5625 C 3.613281 -3.5625 3.742188 -3.695312 3.742188 -3.863281 C 3.742188 -4.03125 3.613281 -4.164062 3.445312 -4.164062 Z M 3.445312 -4.164062 "/></g></g></g><g fill="#ffffff" fill-opacity="1"><g transform="translate(167.111227, 223.87828)"><g><path d="M 3.589844 -3.898438 C 3.335938 -4.042969 3.046875 -4.066406 2.746094 -3.972656 C 2.183594 -3.769531 1.644531 -3.046875 1.222656 -2.316406 L 2.136719 -7.90625 C 2.160156 -8.074219 2.050781 -8.21875 1.882812 -8.257812 C 1.726562 -8.28125 1.570312 -8.171875 1.546875 -8.003906 L 0.289062 -0.300781 C 0.265625 -0.144531 0.359375 0 0.503906 0.0351562 C 0.527344 0.0351562 0.550781 0.046875 0.589844 0.046875 C 0.707031 0.046875 0.816406 -0.0351562 0.863281 -0.144531 C 1.273438 -1.273438 2.207031 -3.144531 2.953125 -3.40625 C 3.085938 -3.457031 3.179688 -3.445312 3.277344 -3.394531 C 3.457031 -3.179688 3.359375 -1.738281 3.070312 -0.3125 C 3.046875 -0.15625 3.144531 0.0117188 3.3125 0.0351562 C 3.46875 0.0703125 3.625 -0.0351562 3.660156 -0.191406 C 4.199219 -2.902344 3.925781 -3.695312 3.589844 -3.898438 Z M 3.589844 -3.898438 "/></g></g></g><g fill="#ffffff" fill-opacity="1"><g transform="translate(171.563231, 223.87828)"><g/></g></g><g fill="#ffffff" fill-opacity="1"><g transform="translate(174.815241, 223.87828)"><g><path d="M 4.957031 -7.980469 C 4.65625 -8.160156 4.007812 -8.328125 3.480469 -8.171875 C 2.183594 -7.777344 1.945312 -6.394531 1.621094 -4.128906 L 0.757812 -4.128906 C 0.589844 -4.128906 0.457031 -3.996094 0.457031 -3.828125 C 0.457031 -3.671875 0.589844 -3.539062 0.757812 -3.539062 L 1.523438 -3.539062 L 1.066406 -0.394531 C 1.042969 -0.226562 1.164062 -0.0859375 1.320312 -0.0585938 C 1.332031 -0.0585938 1.355469 -0.046875 1.367188 -0.046875 C 1.511719 -0.046875 1.632812 -0.15625 1.65625 -0.3125 L 2.125 -3.539062 L 3.226562 -3.539062 C 3.394531 -3.539062 3.527344 -3.671875 3.527344 -3.828125 C 3.527344 -3.996094 3.394531 -4.128906 3.226562 -4.128906 L 2.21875 -4.128906 C 2.542969 -6.324219 2.746094 -7.332031 3.648438 -7.597656 C 3.984375 -7.703125 4.464844 -7.585938 4.667969 -7.476562 C 4.800781 -7.390625 4.992188 -7.441406 5.0625 -7.585938 C 5.148438 -7.714844 5.101562 -7.90625 4.957031 -7.980469 Z M 4.957031 -7.980469 "/></g></g></g><g fill="#ffffff" fill-opacity="1"><g transform="translate(178.703245, 223.87828)"><g><path d="M 3.589844 -3.109375 C 3.550781 -3.503906 3.347656 -3.851562 3.011719 -4.03125 C 2.664062 -4.246094 2.21875 -4.234375 1.789062 -4.03125 C 1.1875 -3.742188 0.46875 -2.988281 0.382812 -1.835938 C 0.347656 -1.246094 0.457031 -0.804688 0.730469 -0.515625 C 0.949219 -0.277344 1.261719 -0.15625 1.644531 -0.15625 C 2.015625 -0.15625 2.449219 -0.394531 2.820312 -0.792969 C 3.144531 -1.140625 3.671875 -1.90625 3.589844 -3.109375 Z M 2.375 -1.1875 C 2.101562 -0.886719 1.800781 -0.757812 1.644531 -0.757812 C 1.429688 -0.757812 1.273438 -0.804688 1.164062 -0.925781 C 1.019531 -1.078125 0.949219 -1.378906 0.984375 -1.789062 C 1.03125 -2.640625 1.558594 -3.265625 2.039062 -3.492188 C 2.183594 -3.5625 2.316406 -3.601562 2.4375 -3.601562 C 2.542969 -3.601562 2.640625 -3.574219 2.722656 -3.527344 C 2.878906 -3.433594 2.976562 -3.265625 3 -3.070312 C 3.070312 -2.089844 2.640625 -1.476562 2.375 -1.1875 Z M 2.375 -1.1875 "/></g></g></g><g fill="#ffffff" fill-opacity="1"><g transform="translate(182.603254, 223.87828)"><g><path d="M 3.769531 -3.804688 C 3.730469 -3.828125 2.902344 -4.414062 1.789062 -3.636719 C 1.632812 -3.527344 1.476562 -3.359375 1.34375 -3.15625 L 1.453125 -3.851562 C 1.476562 -4.019531 1.367188 -4.164062 1.210938 -4.1875 C 1.042969 -4.210938 0.886719 -4.105469 0.863281 -3.949219 L 0.324219 -0.457031 C 0.300781 -0.300781 0.40625 -0.15625 0.5625 -0.121094 C 0.574219 -0.121094 0.601562 -0.121094 0.613281 -0.121094 C 0.757812 -0.121094 0.875 -0.203125 0.910156 -0.347656 C 1.105469 -1.246094 1.621094 -2.796875 2.125 -3.15625 C 2.878906 -3.683594 3.394531 -3.335938 3.40625 -3.324219 C 3.539062 -3.226562 3.730469 -3.265625 3.828125 -3.394531 C 3.925781 -3.527344 3.898438 -3.707031 3.769531 -3.804688 Z M 3.769531 -3.804688 "/></g></g></g><g fill="#ffffff" fill-opacity="1"><g transform="translate(186.407258, 223.87828)"><g/></g></g><g fill="#ffffff" fill-opacity="1"><g transform="translate(189.659268, 223.87828)"><g><path d="M 5.578125 -8.257812 L 1.609375 -8.257812 C 1.464844 -8.257812 1.34375 -8.148438 1.320312 -8.003906 L 0.0859375 -0.265625 C 0.0703125 -0.179688 0.0976562 -0.0976562 0.15625 -0.0234375 C 0.214844 0.0351562 0.289062 0.0703125 0.382812 0.0703125 L 4.34375 0.0703125 C 4.511719 0.0703125 4.644531 -0.0585938 4.644531 -0.214844 C 4.644531 -0.382812 4.511719 -0.515625 4.34375 -0.515625 L 0.730469 -0.515625 L 1.222656 -3.625 L 4.726562 -3.625 C 4.882812 -3.625 5.015625 -3.757812 5.015625 -3.925781 C 5.015625 -4.078125 4.882812 -4.210938 4.726562 -4.210938 L 1.320312 -4.210938 L 1.859375 -7.65625 L 5.578125 -7.65625 C 5.746094 -7.65625 5.878906 -7.800781 5.878906 -7.957031 C 5.878906 -8.125 5.746094 -8.257812 5.578125 -8.257812 Z M 5.578125 -8.257812 "/></g></g></g><g fill="#ffffff" fill-opacity="1"><g transform="translate(195.203278, 223.87828)"><g><path d="M 3.589844 -4.117188 C 3.433594 -4.175781 3.265625 -4.09375 3.203125 -3.9375 C 2.59375 -2.304688 1.824219 -0.839844 1.535156 -0.695312 C 1.308594 -0.910156 1.152344 -2.339844 1.1875 -3.816406 C 1.199219 -3.984375 1.066406 -4.117188 0.898438 -4.117188 C 0.742188 -4.128906 0.601562 -3.996094 0.601562 -3.828125 C 0.589844 -3.347656 0.539062 -0.863281 1.128906 -0.277344 C 1.273438 -0.121094 1.414062 -0.0976562 1.523438 -0.0976562 C 2.242188 -0.0976562 3.144531 -2.074219 3.757812 -3.730469 C 3.816406 -3.886719 3.742188 -4.054688 3.589844 -4.117188 Z M 3.589844 -4.117188 "/></g></g></g><g fill="#ffffff" fill-opacity="1"><g transform="translate(198.959286, 223.87828)"><g><path d="M 3.085938 -1.140625 C 2.773438 -0.875 2.28125 -0.574219 1.703125 -0.660156 C 1.441406 -0.695312 1.234375 -0.828125 1.105469 -1.054688 C 1.054688 -1.128906 1.019531 -1.210938 0.996094 -1.308594 C 1.414062 -1.355469 2.160156 -1.523438 2.941406 -2.113281 C 3.445312 -2.496094 3.71875 -2.976562 3.683594 -3.382812 C 3.660156 -3.660156 3.503906 -3.886719 3.226562 -4.03125 C 2.941406 -4.175781 2.472656 -4.152344 1.992188 -3.960938 C 1.296875 -3.695312 0.757812 -3.15625 0.527344 -2.53125 C 0.421875 -2.21875 0.359375 -1.90625 0.359375 -1.632812 C 0.359375 -1.621094 0.359375 -1.621094 0.359375 -1.621094 C 0.359375 -1.585938 0.359375 -1.558594 0.359375 -1.535156 C 0.371094 -1.246094 0.457031 -0.972656 0.589844 -0.742188 C 0.816406 -0.371094 1.175781 -0.132812 1.609375 -0.0703125 C 1.714844 -0.0585938 1.8125 -0.046875 1.894531 -0.046875 C 2.566406 -0.046875 3.109375 -0.382812 3.46875 -0.683594 C 3.589844 -0.792969 3.601562 -0.984375 3.492188 -1.105469 C 3.394531 -1.234375 3.203125 -1.246094 3.085938 -1.140625 Z M 1.078125 -2.328125 C 1.261719 -2.796875 1.679688 -3.203125 2.207031 -3.421875 C 2.425781 -3.503906 2.617188 -3.539062 2.761719 -3.539062 C 2.855469 -3.539062 2.914062 -3.515625 2.964844 -3.503906 C 3.070312 -3.445312 3.097656 -3.382812 3.097656 -3.335938 C 3.109375 -3.179688 2.953125 -2.867188 2.578125 -2.578125 C 1.933594 -2.101562 1.320312 -1.945312 0.972656 -1.90625 C 0.996094 -2.039062 1.03125 -2.183594 1.078125 -2.328125 Z M 1.078125 -2.328125 "/></g></g></g><g fill="#ffffff" fill-opacity="1"><g transform="translate(203.015289, 223.87828)"><g><path d="M 3.769531 -3.804688 C 3.730469 -3.828125 2.902344 -4.414062 1.789062 -3.636719 C 1.632812 -3.527344 1.476562 -3.359375 1.34375 -3.15625 L 1.453125 -3.851562 C 1.476562 -4.019531 1.367188 -4.164062 1.210938 -4.1875 C 1.042969 -4.210938 0.886719 -4.105469 0.863281 -3.949219 L 0.324219 -0.457031 C 0.300781 -0.300781 0.40625 -0.15625 0.5625 -0.121094 C 0.574219 -0.121094 0.601562 -0.121094 0.613281 -0.121094 C 0.757812 -0.121094 0.875 -0.203125 0.910156 -0.347656 C 1.105469 -1.246094 1.621094 -2.796875 2.125 -3.15625 C 2.878906 -3.683594 3.394531 -3.335938 3.40625 -3.324219 C 3.539062 -3.226562 3.730469 -3.265625 3.828125 -3.394531 C 3.925781 -3.527344 3.898438 -3.707031 3.769531 -3.804688 Z M 3.769531 -3.804688 "/></g></g></g><g fill="#ffffff" fill-opacity="1"><g transform="translate(206.819294, 223.87828)"><g><path d="M 3.925781 -3.984375 C 3.769531 -4.019531 3.625 -3.925781 3.574219 -3.769531 C 2.964844 -1.378906 2.0625 -0.742188 1.800781 -0.613281 C 1.667969 -0.539062 1.488281 -0.46875 1.320312 -0.527344 C 1.007812 -0.636719 0.972656 -1.933594 1.402344 -3.625 C 1.453125 -3.78125 1.355469 -3.9375 1.199219 -3.984375 C 1.03125 -4.019531 0.875 -3.925781 0.828125 -3.769531 C 0.625 -2.976562 0.0351562 -0.347656 1.117188 0.0234375 C 1.414062 0.132812 1.738281 0.0976562 2.074219 -0.0859375 C 2.484375 -0.300781 2.867188 -0.695312 3.203125 -1.246094 C 3.058594 -0.335938 2.914062 0.589844 2.820312 1.054688 C 2.605469 2.113281 2.125 3.046875 1.644531 3.347656 C 1.164062 3.636719 0.289062 3.660156 0.0351562 3.457031 C -0.0976562 3.359375 -0.277344 3.371094 -0.382812 3.503906 C -0.480469 3.636719 -0.46875 3.816406 -0.335938 3.925781 C -0.109375 4.105469 0.253906 4.175781 0.625 4.175781 C 1.105469 4.175781 1.609375 4.054688 1.945312 3.851562 C 2.710938 3.382812 3.214844 2.113281 3.394531 1.164062 C 3.625 0.0703125 4.140625 -3.503906 4.164062 -3.648438 C 4.1875 -3.804688 4.078125 -3.949219 3.925781 -3.984375 Z M 3.925781 -3.984375 "/></g></g></g><g fill="#ffffff" fill-opacity="1"><g transform="translate(211.295307, 223.87828)"><g><path d="M 3.589844 -3.109375 C 3.550781 -3.503906 3.347656 -3.851562 3.011719 -4.03125 C 2.664062 -4.246094 2.21875 -4.234375 1.789062 -4.03125 C 1.1875 -3.742188 0.46875 -2.988281 0.382812 -1.835938 C 0.347656 -1.246094 0.457031 -0.804688 0.730469 -0.515625 C 0.949219 -0.277344 1.261719 -0.15625 1.644531 -0.15625 C 2.015625 -0.15625 2.449219 -0.394531 2.820312 -0.792969 C 3.144531 -1.140625 3.671875 -1.90625 3.589844 -3.109375 Z M 2.375 -1.1875 C 2.101562 -0.886719 1.800781 -0.757812 1.644531 -0.757812 C 1.429688 -0.757812 1.273438 -0.804688 1.164062 -0.925781 C 1.019531 -1.078125 0.949219 -1.378906 0.984375 -1.789062 C 1.03125 -2.640625 1.558594 -3.265625 2.039062 -3.492188 C 2.183594 -3.5625 2.316406 -3.601562 2.4375 -3.601562 C 2.542969 -3.601562 2.640625 -3.574219 2.722656 -3.527344 C 2.878906 -3.433594 2.976562 -3.265625 3 -3.070312 C 3.070312 -2.089844 2.640625 -1.476562 2.375 -1.1875 Z M 2.375 -1.1875 "/></g></g></g><g fill="#ffffff" fill-opacity="1"><g transform="translate(215.195315, 223.87828)"><g><path d="M 3.742188 -3.839844 C 3.503906 -4.03125 3.226562 -4.09375 2.941406 -4.019531 C 2.316406 -3.863281 1.691406 -3.046875 1.199219 -2.230469 L 1.464844 -3.742188 C 1.488281 -3.910156 1.378906 -4.066406 1.222656 -4.09375 C 1.054688 -4.117188 0.898438 -4.007812 0.875 -3.851562 L 0.289062 -0.394531 C 0.265625 -0.238281 0.359375 -0.0976562 0.503906 -0.0585938 C 0.527344 -0.046875 0.5625 -0.046875 0.589844 -0.046875 C 0.707031 -0.046875 0.816406 -0.121094 0.863281 -0.226562 C 1.34375 -1.378906 2.375 -3.265625 3.085938 -3.445312 C 3.191406 -3.480469 3.277344 -3.457031 3.359375 -3.382812 C 3.527344 -3.167969 3.457031 -1.8125 3.191406 -0.40625 C 3.167969 -0.253906 3.277344 -0.0976562 3.433594 -0.0585938 C 3.601562 -0.0351562 3.742188 -0.144531 3.78125 -0.300781 C 3.984375 -1.441406 4.261719 -3.421875 3.742188 -3.839844 Z M 3.742188 -3.839844 "/></g></g></g><g fill="#ffffff" fill-opacity="1"><g transform="translate(219.73133, 223.87828)"><g><path d="M 3.085938 -1.140625 C 2.773438 -0.875 2.28125 -0.574219 1.703125 -0.660156 C 1.441406 -0.695312 1.234375 -0.828125 1.105469 -1.054688 C 1.054688 -1.128906 1.019531 -1.210938 0.996094 -1.308594 C 1.414062 -1.355469 2.160156 -1.523438 2.941406 -2.113281 C 3.445312 -2.496094 3.71875 -2.976562 3.683594 -3.382812 C 3.660156 -3.660156 3.503906 -3.886719 3.226562 -4.03125 C 2.941406 -4.175781 2.472656 -4.152344 1.992188 -3.960938 C 1.296875 -3.695312 0.757812 -3.15625 0.527344 -2.53125 C 0.421875 -2.21875 0.359375 -1.90625 0.359375 -1.632812 C 0.359375 -1.621094 0.359375 -1.621094 0.359375 -1.621094 C 0.359375 -1.585938 0.359375 -1.558594 0.359375 -1.535156 C 0.371094 -1.246094 0.457031 -0.972656 0.589844 -0.742188 C 0.816406 -0.371094 1.175781 -0.132812 1.609375 -0.0703125 C 1.714844 -0.0585938 1.8125 -0.046875 1.894531 -0.046875 C 2.566406 -0.046875 3.109375 -0.382812 3.46875 -0.683594 C 3.589844 -0.792969 3.601562 -0.984375 3.492188 -1.105469 C 3.394531 -1.234375 3.203125 -1.246094 3.085938 -1.140625 Z M 1.078125 -2.328125 C 1.261719 -2.796875 1.679688 -3.203125 2.207031 -3.421875 C 2.425781 -3.503906 2.617188 -3.539062 2.761719 -3.539062 C 2.855469 -3.539062 2.914062 -3.515625 2.964844 -3.503906 C 3.070312 -3.445312 3.097656 -3.382812 3.097656 -3.335938 C 3.109375 -3.179688 2.953125 -2.867188 2.578125 -2.578125 C 1.933594 -2.101562 1.320312 -1.945312 0.972656 -1.90625 C 0.996094 -2.039062 1.03125 -2.183594 1.078125 -2.328125 Z M 1.078125 -2.328125 "/></g></g></g></svg>